# xmcd
#
# Track frame offsets: 
#        150
#        26217
#        50892
#        84575
#        107800
#        142454
#        167781
#        186617
#        211956
#
# Disc length: 3071 seconds
#
# Revision: 0
# Processed by: cddbd v1.5.2PL0 Copyright (c) Steve Scherf et al.
# Submitted via: ExactAudioCopy v0.95b3
#
DISCID=920bfd09
DTITLE=David Bowie  - liveandwell.com CD 2  FLAC
DYEAR=1900
DGENRE=
TTITLE0=Fun\\Dillinja Mix
TTITLE1=Little Wonder\\Danny Saber Dance Mix
TTITLE2=Dead Man Walking\\Moby Mix I
TTITLE3=Telling Lies (Paradox Mix)
TTITLE4=Jump They Say (Leftfield remix)
TTITLE5=Pallas Athena (Don't Stop Praying remix)
TTITLE6=Survive (Live)
TTITLE7=Thursday's Child (Live)
TTITLE8=Seven( Live)
EXTD=
EXTT0=
EXTT1=
EXTT2=
EXTT3=
EXTT4=
EXTT5=
EXTT6=
EXTT7=
EXTT8=
PLAYORDER=
